<svg fill="#fff" height="512" viewBox="0 0 28 60" width="512" xmlns="http://www.w3.org/2000/svg"><g id="Page-1" fill="none" fill-rule="evenodd"><g id="002---Laptop-SSD" fill="rgb(0,0,0)" fill-rule="nonzero"><path id="Shape" d="m2 60h8c.5522847 0 1-.4477153 1-1 0-1.6568542 1.3431458-3 3-3s3 1.3431458 3 3c0 .5522847.4477153 1 1 1h8c1.1045695 0 2-.8954305 2-2v-6c0-1.1045695-.8954305-2-2-2v-2c1.1045695 0 2-.8954305 2-2v-12c0-1.1045695-.8954305-2-2-2v-2c1.1045695 0 2-.8954305 2-2v-12c0-1.1045695-.8954305-2-2-2v-2c1.1045695 0 2-.8954305 2-2v-2c0-1.1045695-.8954305-2-2-2v-4c0-1.1045695-.8954305-2-2-2h-20c-1.1045695 0-2 .8954305-2 2v4c-1.1045695 0-2 .8954305-2 2v2c0 1.1045695.8954305 2 2 2v2c-1.1045695 0-2 .8954305-2 2v12c0 1.1045695.8954305 2 2 2v2c-1.1045695 0-2 .8954305-2 2v12c0 1.1045695.8954305 2 2 2v2c-1.1045695 0-2 .8954305-2 2v6c0 1.1045695.8954305 2 2 2zm2-58h3v1c0 .55228475.44771525 1 1 1s1-.44771525 1-1v-1h2v1c0 .55228475.4477153 1 1 1s1-.44771525 1-1v-1h2v1c0 .55228475.4477153 1 1 1s1-.44771525 1-1v-1h2v1c0 .55228475.4477153 1 1 1s1-.44771525 1-1v-1h3v4h-20zm-2 50c1.1045695 0 2-.8954305 2-2v-2c0-1.1045695-.8954305-2-2-2v-12c1.1045695 0 2-.8954305 2-2v-2c0-1.1045695-.8954305-2-2-2v-12c1.1045695 0 2-.8954305 2-2v-2c0-1.1045695-.8954305-2-2-2v-2h24v2c-1.1045695 0-2 .8954305-2 2v2c0 1.1045695.8954305 2 2 2v12c-1.1045695 0-2 .8954305-2 2v2c0 1.1045695.8954305 2 2 2v12c-1.1045695 0-2 .8954305-2 2v2c0 1.1045695.8954305 2 2 2v6h-7.1c-.4731925-2.330324-2.5221184-4.0050126-4.9-4.0050126s-4.42680753 1.6746886-4.9 4.0050126h-7.1z"/><path id="Shape" d="m8 25h12c1.1045695 0 2-.8954305 2-2v-11c0-1.1045695-.8954305-2-2-2h-12c-1.1045695 0-2 .8954305-2 2v11c0 1.1045695.8954305 2 2 2zm0-13h12v11h-12z"/><path id="Shape" d="m8 39h3c1.1045695 0 2-.8954305 2-2v-8c0-1.1045695-.8954305-2-2-2h-3c-1.1045695 0-2 .8954305-2 2v8c0 1.1045695.8954305 2 2 2zm0-10h3v8h-3z"/><path id="Shape" d="m20 27h-3c-1.1045695 0-2 .8954305-2 2v8c0 1.1045695.8954305 2 2 2h3c1.1045695 0 2-.8954305 2-2v-8c0-1.1045695-.8954305-2-2-2zm-3 10v-8h3v8z"/><path id="Shape" d="m22 50v-7c0-1.1045695-.8954305-2-2-2h-12c-1.1045695 0-2 .8954305-2 2v7c0 1.1045695.8954305 2 2 2h12c1.1045695 0 2-.8954305 2-2zm-14-7h12v7h-12z"/><circle id="Oval" cx="11" cy="15" r="1"/><circle id="Oval" cx="17" cy="15" r="1"/><circle id="Oval" cx="11" cy="20" r="1"/><circle id="Oval" cx="17" cy="20" r="1"/></g></g></svg>